<?xml version="1.0" encoding="UTF-8"?>
<svg version="1.1" xmlns="http://www.w3.org/2000/svg" width="600" height="600">
<path d="M0 0 C198 0 396 0 600 0 C600 198 600 396 600 600 C402 600 204 600 0 600 C0 402 0 204 0 0 Z " fill="#4A4A4A" transform="translate(0,0)"/>
<path d="M0 0 C1.2546254 -0.00622879 2.50925079 -0.01245758 3.80189514 -0.01887512 C5.17188921 -0.01018797 6.54187941 -0.00087008 7.91186523 0.0090332 C9.31526184 0.00955183 10.71865917 0.00903403 12.12205505 0.00752258 C15.06178648 0.00761227 18.00124347 0.01803574 20.94091797 0.03613281 C24.71292646 0.05884103 28.48453468 0.05936007 32.25659275 0.05261517 C35.15361604 0.04927752 38.05054771 0.05590101 40.94755363 0.0657444 C42.33864805 0.06959867 43.72975266 0.07074368 45.12085152 0.06915855 C47.06236171 0.06878863 49.00385858 0.08286891 50.9453125 0.09765625 C52.60386009 0.10456734 52.60386009 0.10456734 54.2959137 0.11161804 C56.90795898 0.37231445 56.90795898 0.37231445 58.90795898 2.37231445 C59.08298894 4.95334752 59.13958177 7.42539608 59.10327148 10.00512695 C59.10044159 10.75696259 59.09761169 11.50879822 59.09469604 12.28341675 C59.08348772 14.68821023 59.0583825 17.09263326 59.03295898 19.49731445 C59.02293 21.12621533 59.01380401 22.75512204 59.00561523 24.3840332 C58.98354633 28.38027001 58.94901249 32.37622939 58.90795898 36.37231445 C59.54209717 36.42782471 60.17623535 36.48333496 60.82958984 36.54052734 C87.2574652 38.99438516 124.73186942 51.060661 143.43676758 71.00219727 C145.38916204 74.14754168 145.75097864 77.22572031 146.18920898 80.8293457 C146.28796829 81.56094406 146.3867276 82.29254242 146.48847961 83.04631042 C146.80665416 85.42443565 147.10766144 87.8043715 147.40795898 90.18481445 C147.62272013 91.82361476 147.83846375 93.46228661 148.05517578 95.10083008 C148.48401365 98.35544746 148.90625688 101.61081842 149.32348633 104.86694336 C149.82077656 108.73077166 150.35037926 112.58922901 150.89624023 116.4465332 C153.89191193 137.79133049 153.89191193 137.79133049 152.90795898 144.37231445 C150.29807593 146.9821975 148.46141475 146.62157945 144.90635681 146.65447998 C144.06577225 146.65200256 143.22518768 146.64952515 142.35913086 146.64697266 C141.47447647 146.65208359 140.58982208 146.65719452 139.67835999 146.66246033 C136.74440814 146.67639849 133.81069006 146.67539655 130.87670898 146.6730957 C128.84411531 146.67698 126.81152246 146.68131412 124.77893066 146.68608093 C120.51510997 146.69355202 116.25137207 146.69324522 111.98754883 146.68798828 C106.51269378 146.68218919 101.03817654 146.69913105 95.56337738 146.72233295 C91.36503098 146.73703483 87.16676663 146.7379469 82.96839905 146.73482323 C80.9492984 146.73533812 78.93019336 146.74060712 76.91111755 146.75063515 C74.09278126 146.7629152 71.27511202 146.75625917 68.45678711 146.74462891 C67.61620255 146.75227264 66.77561798 146.75991638 65.90956116 146.76779175 C63.58972168 146.74653625 63.58972168 146.74653625 59.90795898 146.37231445 C58.02776171 143.55201854 57.37087306 141.76853249 56.53295898 138.55981445 C54.42489876 131.34416553 51.07156415 126.75795659 44.90795898 122.37231445 C34.75104954 117.4766841 21.97657562 116.68712132 11.10327148 119.5559082 C4.96053762 121.84030567 -1.65929437 125.05691379 -4.53344727 131.2590332 C-6.18715995 137.51538677 -6.33283797 144.0485803 -3.02954102 149.74731445 C-1.63891657 151.65513957 -1.63891657 151.65513957 -0.09204102 153.37231445 C0.34624023 153.88020508 0.78452148 154.3880957 1.23608398 154.91137695 C11.0682554 164.58830355 27.03822818 169.16643163 39.72525024 173.75747681 C44.12990797 175.35445494 48.52081711 176.98835669 52.91186523 178.62231445 C54.20941994 179.10472343 54.20941994 179.10472343 55.53318787 179.59687805 C94.33256891 194.07923168 133.21980045 211.48594471 152.09545898 250.74731445 C164.46451234 278.61891467 164.68122221 311.87313213 154.12109375 340.38208008 C150.8979108 348.60077461 147.23389639 356.28620583 141.90795898 363.37231445 C141.23120117 364.27981445 140.55444336 365.18731445 139.85717773 366.12231445 C133.30906902 374.49644993 125.82157325 381.67569881 117.09545898 387.74731445 C110.33126255 392.85076732 107.12494502 401.395214 104.90795898 409.37231445 C104.29778619 417.36737271 104.85562773 424.99228942 106.44311523 432.82543945 C107.84359631 440.49866352 107.27776951 446.27755095 103.47436523 453.16918945 C100.47816878 457.3832912 96.8264522 459.73281671 91.90795898 461.37231445 C84.90931853 462.09809939 79.31508774 462.06247152 73.52514648 457.7980957 C68.75461468 453.59219206 66.10921789 449.35026404 65.67749023 442.9621582 C65.69166992 441.75688477 65.70584961 440.55161133 65.72045898 439.30981445 C65.73012695 437.49803711 65.73012695 437.49803711 65.73999023 435.6496582 C65.8773738 432.96908114 66.25416372 430.93174552 66.90795898 428.37231445 C67.0500142 426.20870423 67.12812325 424.04037781 67.15795898 421.87231445 C67.19663086 420.1862207 67.19663086 420.1862207 67.23608398 418.46606445 C66.8765375 415.07605477 66.36447904 413.70516531 63.90795898 411.37231445 C60.3656509 410.78889093 60.3656509 410.78889093 56.90795898 411.37231445 C54.57117246 414.87749425 54.65733018 416.28483632 54.65258789 420.42919922 C54.64562897 421.67802383 54.63867004 422.92684845 54.63150024 424.21351624 C54.63218128 424.88106493 54.63286232 425.54861362 54.633564 426.23639107 C54.63453161 428.33568 54.62155625 430.43446009 54.60458374 432.53367615 C54.55840809 438.50206455 54.53374846 444.47040398 54.52709961 450.43896484 C54.52204808 454.0931142 54.49760782 457.74673849 54.46177292 461.40070915 C54.45205019 462.78516404 54.44960137 464.1696919 54.45494461 465.55417061 C54.49506469 476.47072653 53.24280198 485.69939272 45.53686523 493.9074707 C38.98475651 499.7996548 30.85537446 501.84994158 22.20483398 501.6262207 C12.58389957 500.56268204 5.84076076 495.7111854 -0.47875977 488.6652832 C-5.9131025 480.94141108 -5.54833809 473.50559451 -5.56860352 464.3215332 C-5.58292893 462.85657833 -5.5986887 461.39163685 -5.61581421 459.92671204 C-5.65749575 456.08888392 -5.68260977 452.25113893 -5.70330811 448.41314697 C-5.73925499 442.25312902 -5.80006609 436.09331554 -5.86179733 429.93351173 C-5.88089035 427.78304217 -5.89261398 425.63262764 -5.90322876 423.48210144 C-5.91862198 421.53416435 -5.91862198 421.53416435 -5.93432617 419.546875 C-5.94082184 418.39994675 -5.9473175 417.25301849 -5.95401001 416.07133484 C-5.90963932 413.40299487 -5.90963932 413.40299487 -7.09204102 411.37231445 C-9.40204102 411.37231445 -11.71204102 411.37231445 -14.09204102 411.37231445 C-17.84114145 417.62081518 -17.78526369 422.86319794 -16.09204102 429.68481445 C-14.19295208 437.59540791 -13.98607269 445.15147361 -18.09204102 452.37231445 C-21.33222163 457.05257534 -24.48584875 460.08909596 -30.09204102 461.37231445 C-36.82555755 462.27816869 -41.87523219 461.83978168 -47.44360352 457.79418945 C-49.71555829 455.83449386 -51.44032674 453.88047317 -53.09204102 451.37231445 C-53.66954102 450.50606445 -54.24704102 449.63981445 -54.84204102 448.74731445 C-57.07197034 442.72650527 -56.72772109 436.77044871 -55.09594727 430.61450195 C-53.88678186 426.01804307 -53.72464126 421.60726918 -53.71704102 416.87231445 C-53.68030273 415.66768555 -53.68030273 415.66768555 -53.64282227 414.4387207 C-53.61480493 408.67648846 -54.49475368 404.00208501 -58.09204102 399.37231445 C-60.55802406 397.27426365 -63.21279303 395.83483745 -66.09204102 394.37231445 C-67.3667627 393.70643311 -67.3667627 393.70643311 -68.66723633 393.02709961 C-70.52803956 392.06690925 -72.39414048 391.11692929 -74.26489258 390.17626953 C-79.25130743 387.65708261 -84.17346247 385.02091281 -89.09204102 382.37231445 C-89.87740234 381.95852539 -90.66276367 381.54473633 -91.47192383 381.1184082 C-97.15347007 378.04166448 -101.93996539 375.22287873 -104.45922852 368.98950195 C-105.28097222 365.41160782 -105.57585364 361.81603346 -105.84692383 358.16088867 C-106.23798151 353.71202334 -106.9146094 349.30698915 -107.55151367 344.88769531 C-108.09131922 341.12734258 -108.60295664 337.36408738 -109.10766602 333.59887695 C-109.71625842 329.0893266 -110.34632335 324.5844449 -111.01391602 320.08325195 C-111.15442383 319.13224609 -111.29493164 318.18124023 -111.43969727 317.20141602 C-111.69871634 315.46058152 -111.96144367 313.72029265 -112.22875977 311.98071289 C-112.90338962 307.41938126 -113.48560089 302.99085531 -113.09204102 298.37231445 C-111.81976318 296.70129967 -111.81976318 296.70129967 -110.09204102 295.37231445 C-107.0501949 295.07588549 -104.21314169 294.96272995 -101.17016602 294.98413086 C-100.25771118 294.9788739 -99.34525635 294.97361694 -98.40515137 294.96820068 C-95.38394131 294.95497869 -92.36325659 294.96374661 -89.34204102 294.97387695 C-87.24601134 294.97185685 -85.14998234 294.96894595 -83.05395508 294.96517944 C-78.6590303 294.9607531 -74.26428832 294.96719719 -69.86938477 294.98120117 C-64.22985281 294.99829313 -58.59074914 294.98845362 -52.95123291 294.97048378 C-48.62244426 294.95965437 -44.29375751 294.96308843 -39.96496582 294.97086716 C-37.88529408 294.97287149 -35.80561316 294.97040174 -33.72595215 294.9634285 C-30.82169003 294.95582795 -27.918126 294.96739873 -25.01391602 294.98413086 C-24.15044556 294.97805817 -23.2869751 294.97198547 -22.39733887 294.96572876 C-16.52271873 295.02857813 -16.52271873 295.02857813 -14.41192627 296.71326256 C-12.4730923 299.15031242 -11.95853809 301.69311718 -11.15454102 304.68481445 C-8.71562908 312.9551098 -5.18466352 318.45457815 1.90795898 323.37231445 C14.13923523 329.88051043 29.03273913 330.52844863 42.28295898 326.62231445 C50.10040379 323.74957865 54.29948902 320.85654846 57.90795898 313.37231445 C59.98846273 307.99767977 59.4808128 302.16320017 57.47045898 296.87231445 C47.51804802 276.93329181 13.80131169 269.39908377 -5.64282227 261.80200195 C-32.59535592 251.26340978 -58.27210231 239.92870963 -79.09204102 219.37231445 C-79.74172852 218.79481445 -80.39141602 218.21731445 -81.06079102 217.62231445 C-96.70600022 203.399397 -105.83602169 179.00148039 -107.09204102 158.37231445 C-107.66646748 144.50114472 -108.16299593 130.76593234 -104.09204102 117.37231445 C-103.82520508 116.33075195 -103.55836914 115.28918945 -103.28344727 114.21606445 C-99.58418646 100.66854933 -92.9459806 88.24082155 -84.09204102 77.37231445 C-83.42817383 76.54473633 -82.76430664 75.7171582 -82.08032227 74.86450195 C-65.62019489 55.45311329 -38.32981049 39.87467721 -12.88696289 36.8269043 C-11.63463867 36.67688965 -10.38231445 36.526875 -9.09204102 36.37231445 C-9.10775146 35.38835693 -9.12346191 34.40439941 -9.13964844 33.390625 C-9.19395079 29.73982937 -9.22839186 26.08906944 -9.25683594 22.43798828 C-9.27192196 20.85784909 -9.29239352 19.27775176 -9.31835938 17.69775391 C-9.35475228 15.4264086 -9.37176864 13.15561687 -9.38500977 10.8840332 C-9.40049362 10.17768234 -9.41597748 9.47133148 -9.43193054 8.74357605 C-9.43359997 3.87762942 -9.43359997 3.87762942 -7.95150757 1.68496704 C-5.27464793 -0.20470757 -3.25798948 -0.0018533 0 0 Z " fill="#A8CE27" transform="translate(274.092041015625,57.627685546875)"/>
<path d="M0 0 C1.2546254 -0.00622879 2.50925079 -0.01245758 3.80189514 -0.01887512 C5.17188921 -0.01018797 6.54187941 -0.00087008 7.91186523 0.0090332 C9.31526184 0.00955183 10.71865917 0.00903403 12.12205505 0.00752258 C15.06178648 0.00761227 18.00124347 0.01803574 20.94091797 0.03613281 C24.71292646 0.05884103 28.48453468 0.05936007 32.25659275 0.05261517 C35.15361604 0.04927752 38.05054771 0.05590101 40.94755363 0.0657444 C42.33864805 0.06959867 43.72975266 0.07074368 45.12085152 0.06915855 C47.06236171 0.06878863 49.00385858 0.08286891 50.9453125 0.09765625 C52.60386009 0.10456734 52.60386009 0.10456734 54.2959137 0.11161804 C56.90795898 0.37231445 56.90795898 0.37231445 58.90795898 2.37231445 C59.08298894 4.95334752 59.13958177 7.42539608 59.10327148 10.00512695 C59.10044159 10.75696259 59.09761169 11.50879822 59.09469604 12.28341675 C59.08348772 14.68821023 59.0583825 17.09263326 59.03295898 19.49731445 C59.02293 21.12621533 59.01380401 22.75512204 59.00561523 24.3840332 C58.98354633 28.38027001 58.94901249 32.37622939 58.90795898 36.37231445 C59.54209717 36.42782471 60.17623535 36.48333496 60.82958984 36.54052734 C87.2574652 38.99438516 124.73186942 51.060661 143.43676758 71.00219727 C145.38916204 74.14754168 145.75097864 77.22572031 146.18920898 80.8293457 C146.28796829 81.56094406 146.3867276 82.29254242 146.48847961 83.04631042 C146.80665416 85.42443565 147.10766144 87.8043715 147.40795898 90.18481445 C147.62272013 91.82361476 147.83846375 93.46228661 148.05517578 95.10083008 C148.48401365 98.35544746 148.90625688 101.61081842 149.32348633 104.86694336 C149.82077656 108.73077166 150.35037926 112.58922901 150.89624023 116.4465332 C153.89191193 137.79133049 153.89191193 137.79133049 152.90795898 144.37231445 C150.29807593 146.9821975 148.46141475 146.62157945 144.90635681 146.65447998 C144.06577225 146.65200256 143.22518768 146.64952515 142.35913086 146.64697266 C141.47447647 146.65208359 140.58982208 146.65719452 139.67835999 146.66246033 C136.74440814 146.67639849 133.81069006 146.67539655 130.87670898 146.6730957 C128.84411531 146.67698 126.81152246 146.68131412 124.77893066 146.68608093 C120.51510997 146.69355202 116.25137207 146.69324522 111.98754883 146.68798828 C106.51269378 146.68218919 101.03817654 146.69913105 95.56337738 146.72233295 C91.36503098 146.73703483 87.16676663 146.7379469 82.96839905 146.73482323 C80.9492984 146.73533812 78.93019336 146.74060712 76.91111755 146.75063515 C74.09278126 146.7629152 71.27511202 146.75625917 68.45678711 146.74462891 C67.61620255 146.75227264 66.77561798 146.75991638 65.90956116 146.76779175 C63.58972168 146.74653625 63.58972168 146.74653625 59.90795898 146.37231445 C58.02776171 143.55201854 57.37087306 141.76853249 56.53295898 138.55981445 C54.42489876 131.34416553 51.07156415 126.75795659 44.90795898 122.37231445 C34.75104954 117.4766841 21.97657562 116.68712132 11.10327148 119.5559082 C4.96053762 121.84030567 -1.65929437 125.05691379 -4.53344727 131.2590332 C-6.18715995 137.51538677 -6.33283797 144.0485803 -3.02954102 149.74731445 C-1.63891657 151.65513957 -1.63891657 151.65513957 -0.09204102 153.37231445 C0.34624023 153.88020508 0.78452148 154.3880957 1.23608398 154.91137695 C11.0682554 164.58830355 27.03822818 169.16643163 39.72525024 173.75747681 C44.12990797 175.35445494 48.52081711 176.98835669 52.91186523 178.62231445 C54.20941994 179.10472343 54.20941994 179.10472343 55.53318787 179.59687805 C94.33256891 194.07923168 133.21980045 211.48594471 152.09545898 250.74731445 C164.46451234 278.61891467 164.68122221 311.87313213 154.12109375 340.38208008 C150.8979108 348.60077461 147.23389639 356.28620583 141.90795898 363.37231445 C141.23120117 364.27981445 140.55444336 365.18731445 139.85717773 366.12231445 C133.30906902 374.49644993 125.82157325 381.67569881 117.09545898 387.74731445 C110.33126255 392.85076732 107.12494502 401.395214 104.90795898 409.37231445 C104.29778619 417.36737271 104.85562773 424.99228942 106.44311523 432.82543945 C107.84359631 440.49866352 107.27776951 446.27755095 103.47436523 453.16918945 C100.47816878 457.3832912 96.8264522 459.73281671 91.90795898 461.37231445 C84.90931853 462.09809939 79.31508774 462.06247152 73.52514648 457.7980957 C68.75461468 453.59219206 66.10921789 449.35026404 65.67749023 442.9621582 C65.69166992 441.75688477 65.70584961 440.55161133 65.72045898 439.30981445 C65.73012695 437.49803711 65.73012695 437.49803711 65.73999023 435.6496582 C65.8773738 432.96908114 66.25416372 430.93174552 66.90795898 428.37231445 C67.0500142 426.20870423 67.12812325 424.04037781 67.15795898 421.87231445 C67.19663086 420.1862207 67.19663086 420.1862207 67.23608398 418.46606445 C66.8765375 415.07605477 66.36447904 413.70516531 63.90795898 411.37231445 C60.3656509 410.78889093 60.3656509 410.78889093 56.90795898 411.37231445 C54.57117246 414.87749425 54.65733018 416.28483632 54.65258789 420.42919922 C54.64562897 421.67802383 54.63867004 422.92684845 54.63150024 424.21351624 C54.63218128 424.88106493 54.63286232 425.54861362 54.633564 426.23639107 C54.63453161 428.33568 54.62155625 430.43446009 54.60458374 432.53367615 C54.55840809 438.50206455 54.53374846 444.47040398 54.52709961 450.43896484 C54.52204808 454.0931142 54.49760782 457.74673849 54.46177292 461.40070915 C54.45205019 462.78516404 54.44960137 464.1696919 54.45494461 465.55417061 C54.49506469 476.47072653 53.24280198 485.69939272 45.53686523 493.9074707 C38.98475651 499.7996548 30.85537446 501.84994158 22.20483398 501.6262207 C12.58389957 500.56268204 5.84076076 495.7111854 -0.47875977 488.6652832 C-5.9131025 480.94141108 -5.54833809 473.50559451 -5.56860352 464.3215332 C-5.58292893 462.85657833 -5.5986887 461.39163685 -5.61581421 459.92671204 C-5.65749575 456.08888392 -5.68260977 452.25113893 -5.70330811 448.41314697 C-5.73925499 442.25312902 -5.80006609 436.09331554 -5.86179733 429.93351173 C-5.88089035 427.78304217 -5.89261398 425.63262764 -5.90322876 423.48210144 C-5.91862198 421.53416435 -5.91862198 421.53416435 -5.93432617 419.546875 C-5.94082184 418.39994675 -5.9473175 417.25301849 -5.95401001 416.07133484 C-5.90963932 413.40299487 -5.90963932 413.40299487 -7.09204102 411.37231445 C-9.40204102 411.37231445 -11.71204102 411.37231445 -14.09204102 411.37231445 C-17.84114145 417.62081518 -17.78526369 422.86319794 -16.09204102 429.68481445 C-14.19295208 437.59540791 -13.98607269 445.15147361 -18.09204102 452.37231445 C-21.33222163 457.05257534 -24.48584875 460.08909596 -30.09204102 461.37231445 C-36.82555755 462.27816869 -41.87523219 461.83978168 -47.44360352 457.79418945 C-49.71555829 455.83449386 -51.44032674 453.88047317 -53.09204102 451.37231445 C-53.66954102 450.50606445 -54.24704102 449.63981445 -54.84204102 448.74731445 C-57.07197034 442.72650527 -56.72772109 436.77044871 -55.09594727 430.61450195 C-53.88678186 426.01804307 -53.72464126 421.60726918 -53.71704102 416.87231445 C-53.68030273 415.66768555 -53.68030273 415.66768555 -53.64282227 414.4387207 C-53.61480493 408.67648846 -54.49475368 404.00208501 -58.09204102 399.37231445 C-60.55802406 397.27426365 -63.21279303 395.83483745 -66.09204102 394.37231445 C-67.3667627 393.70643311 -67.3667627 393.70643311 -68.66723633 393.02709961 C-70.52803956 392.06690925 -72.39414048 391.11692929 -74.26489258 390.17626953 C-79.25130743 387.65708261 -84.17346247 385.02091281 -89.09204102 382.37231445 C-89.87740234 381.95852539 -90.66276367 381.54473633 -91.47192383 381.1184082 C-97.15347007 378.04166448 -101.93996539 375.22287873 -104.45922852 368.98950195 C-105.28097222 365.41160782 -105.57585364 361.81603346 -105.84692383 358.16088867 C-106.23798151 353.71202334 -106.9146094 349.30698915 -107.55151367 344.88769531 C-108.09131922 341.12734258 -108.60295664 337.36408738 -109.10766602 333.59887695 C-109.71625842 329.0893266 -110.34632335 324.5844449 -111.01391602 320.08325195 C-111.15442383 319.13224609 -111.29493164 318.18124023 -111.43969727 317.20141602 C-111.69871634 315.46058152 -111.96144367 313.72029265 -112.22875977 311.98071289 C-112.90338962 307.41938126 -113.48560089 302.99085531 -113.09204102 298.37231445 C-111.81976318 296.70129967 -111.81976318 296.70129967 -110.09204102 295.37231445 C-107.0501949 295.07588549 -104.21314169 294.96272995 -101.17016602 294.98413086 C-100.25771118 294.9788739 -99.34525635 294.97361694 -98.40515137 294.96820068 C-95.38394131 294.95497869 -92.36325659 294.96374661 -89.34204102 294.97387695 C-87.24601134 294.97185685 -85.14998234 294.96894595 -83.05395508 294.96517944 C-78.6590303 294.9607531 -74.26428832 294.96719719 -69.86938477 294.98120117 C-64.22985281 294.99829313 -58.59074914 294.98845362 -52.95123291 294.97048378 C-48.62244426 294.95965437 -44.29375751 294.96308843 -39.96496582 294.97086716 C-37.88529408 294.97287149 -35.80561316 294.97040174 -33.72595215 294.9634285 C-30.82169003 294.95582795 -27.918126 294.96739873 -25.01391602 294.98413086 C-24.15044556 294.97805817 -23.2869751 294.97198547 -22.39733887 294.96572876 C-16.52271873 295.02857813 -16.52271873 295.02857813 -14.41192627 296.71326256 C-12.4730923 299.15031242 -11.95853809 301.69311718 -11.15454102 304.68481445 C-8.71562908 312.9551098 -5.18466352 318.45457815 1.90795898 323.37231445 C14.13923523 329.88051043 29.03273913 330.52844863 42.28295898 326.62231445 C50.10040379 323.74957865 54.29948902 320.85654846 57.90795898 313.37231445 C59.98846273 307.99767977 59.4808128 302.16320017 57.47045898 296.87231445 C47.51804802 276.93329181 13.80131169 269.39908377 -5.64282227 261.80200195 C-32.59535592 251.26340978 -58.27210231 239.92870963 -79.09204102 219.37231445 C-79.74172852 218.79481445 -80.39141602 218.21731445 -81.06079102 217.62231445 C-96.70600022 203.399397 -105.83602169 179.00148039 -107.09204102 158.37231445 C-107.66646748 144.50114472 -108.16299593 130.76593234 -104.09204102 117.37231445 C-103.82520508 116.33075195 -103.55836914 115.28918945 -103.28344727 114.21606445 C-99.58418646 100.66854933 -92.9459806 88.24082155 -84.09204102 77.37231445 C-83.42817383 76.54473633 -82.76430664 75.7171582 -82.08032227 74.86450195 C-65.62019489 55.45311329 -38.32981049 39.87467721 -12.88696289 36.8269043 C-11.63463867 36.67688965 -10.38231445 36.526875 -9.09204102 36.37231445 C-9.10775146 35.38835693 -9.12346191 34.40439941 -9.13964844 33.390625 C-9.19395079 29.73982937 -9.22839186 26.08906944 -9.25683594 22.43798828 C-9.27192196 20.85784909 -9.29239352 19.27775176 -9.31835938 17.69775391 C-9.35475228 15.4264086 -9.37176864 13.15561687 -9.38500977 10.8840332 C-9.40049362 10.17768234 -9.41597748 9.47133148 -9.43193054 8.74357605 C-9.43359997 3.87762942 -9.43359997 3.87762942 -7.95150757 1.68496704 C-5.27464793 -0.20470757 -3.25798948 -0.0018533 0 0 Z M-5.09204102 4.37231445 C-5.09204102 16.25231445 -5.09204102 28.13231445 -5.09204102 40.37231445 C-8.72204102 40.70231445 -12.35204102 41.03231445 -16.09204102 41.37231445 C-33.50031201 44.97807386 -51.49650758 52.81951559 -65.09204102 64.37231445 C-65.93637695 65.08000977 -66.78071289 65.78770508 -67.65063477 66.5168457 C-86.40320448 82.81474115 -96.84804088 102.30369844 -102.09204102 126.37231445 C-102.26856201 127.14389893 -102.44508301 127.9154834 -102.62695312 128.71044922 C-105.14797344 143.13915497 -104.22847391 160.3350221 -100.09204102 174.37231445 C-99.74012695 175.61625977 -99.38821289 176.86020508 -99.02563477 178.1418457 C-90.44775444 206.84614972 -69.16765237 226.47216468 -43.63989258 240.4909668 C-26.56973098 249.55839568 -8.60956124 256.64458939 9.40795898 263.55981445 C54.26425581 280.7829216 54.26425581 280.7829216 62.28295898 297.18481445 C63.93463189 305.60834627 63.37832477 311.76905143 59.09936523 319.27856445 C57.77426453 321.44949642 57.77426453 321.44949642 56.90795898 324.37231445 C55.17358398 325.3996582 55.17358398 325.3996582 52.90795898 326.37231445 C52.07780273 326.78610352 51.24764648 327.19989258 50.39233398 327.6262207 C49.48999023 328.05805664 48.58764648 328.48989258 47.65795898 328.93481445 C46.76592773 329.36922852 45.87389648 329.80364258 44.95483398 330.2512207 C32.1082024 334.97812232 14.83731037 333.60712667 2.48999023 328.34106445 C-6.05815743 324.10278688 -11.00777894 317.8277059 -14.26782227 308.9621582 C-15.27840221 305.78673403 -16.17657266 302.57645369 -17.09204102 299.37231445 C-47.45204102 299.37231445 -77.81204102 299.37231445 -109.09204102 299.37231445 C-106.9040338 320.30776324 -106.9040338 320.30776324 -104.44482422 341.21069336 C-104.1655688 343.5048234 -103.90149006 345.80084677 -103.65185547 348.09838867 C-103.28291662 351.47147581 -102.8627967 354.83477883 -102.43188477 358.20043945 C-102.33149399 359.22026917 -102.23110321 360.24009888 -102.12767029 361.29083252 C-101.34968149 366.90130541 -100.25491648 369.81673362 -95.7434082 373.39282227 C-94.22062102 374.42791019 -92.66935001 375.42237543 -91.09204102 376.37231445 C-89.84483528 377.12726196 -89.84483528 377.12726196 -88.57243347 377.89746094 C-86.21314218 379.284979 -83.82000215 380.58526635 -81.40454102 381.87231445 C-80.10504517 382.58049316 -80.10504517 382.58049316 -78.77929688 383.30297852 C-74.22710897 385.76616886 -69.63984092 388.09082516 -64.94946289 390.27758789 C-57.63942163 393.71784126 -53.96082883 396.36056533 -51.14672852 403.9074707 C-47.93590243 414.19079207 -48.88118304 422.62925551 -51.43579102 432.9777832 C-52.81389614 440.10619602 -52.05373026 444.83462584 -48.63500977 451.1262207 C-46.12843055 454.77503855 -44.28693407 455.834187 -40.09204102 457.37231445 C-34.41526277 458.21441943 -29.91972829 457.66391941 -25.09204102 454.37231445 C-20.71471017 450.03057166 -18.9483992 446.40500397 -18.90454102 440.24731445 C-18.92863757 436.58463769 -19.2100619 433.3002516 -20.09204102 429.74731445 C-21.94268194 422.29149492 -21.83518156 416.16542138 -18.09204102 409.37231445 C-14.6710986 407.09168618 -13.41016879 407.15306439 -9.40454102 407.24731445 C-8.41067383 407.26536133 -7.41680664 407.2834082 -6.39282227 407.30200195 C-5.63356445 407.32520508 -4.87430664 407.3484082 -4.09204102 407.37231445 C-2.46838738 411.66359888 -1.8386077 415.22175757 -1.82080078 419.80151367 C-1.80552086 421.68409378 -1.80552086 421.68409378 -1.78993225 423.60470581 C-1.78899126 424.26800777 -1.78805027 424.93130974 -1.78708076 425.61471176 C-1.78339004 427.70948408 -1.76659037 429.80379426 -1.74632263 431.89846802 C-1.69117116 437.85043711 -1.66028587 443.80247288 -1.63574219 449.75463867 C-1.61978594 453.40568623 -1.58948597 457.05640364 -1.55097771 460.70727921 C-1.53940095 462.09059242 -1.533398 463.47396486 -1.53329659 464.85732651 C-1.5323487 474.34561015 -1.35458137 482.54810784 5.31420898 489.98950195 C11.69135643 495.52261517 18.62111536 497.762546 26.92749023 497.6418457 C34.92404517 496.91869722 40.32758469 493.75187596 45.43530273 487.6652832 C50.08719564 480.42215022 50.32889292 474.49023991 50.28808403 465.96305656 C50.27889855 463.86443171 50.28927932 461.76668607 50.30470276 459.66810608 C50.34460645 453.70680937 50.3460039 447.74558787 50.34375 441.78417969 C50.34369878 438.12546859 50.36291786 434.46723638 50.39308357 430.80865669 C50.40386049 428.7489021 50.3918117 426.69007978 50.3792572 424.63035583 C50.43860579 417.18909104 50.54477671 412.73549672 55.90795898 407.37231445 C58.9619345 406.93062378 61.85825975 406.89515063 64.90795898 407.37231445 C67.66365345 409.55390591 69.34384645 411.24408939 70.90795898 414.37231445 C71.00624962 417.02905253 71.04697561 419.65366295 71.03295898 422.30981445 C71.03682617 423.0387793 71.04069336 423.76774414 71.04467773 424.51879883 C71.03878939 427.73089182 70.93057752 430.30445885 69.90795898 433.37231445 C69.43041473 439.23593165 69.04580288 444.55220711 71.59545898 449.93481445 C76.50822389 455.23859852 76.50822389 455.23859852 83.07983398 457.57543945 C88.4560536 457.6731889 92.33505411 457.52979639 96.90795898 454.37231445 C101.7918878 449.08139157 103.23479916 445.19610773 103.11108398 438.1340332 C102.9090322 435.38690607 102.46542168 432.81804479 101.90795898 430.12231445 C99.18489588 415.97033685 101.15082001 403.11826635 108.34545898 390.62231445 C112.13028142 385.39847099 117.480614 381.77136048 122.57592773 377.9152832 C142.21117588 363.04371228 152.69187986 338.58972758 156.22045898 314.74731445 C159.1297668 286.49345968 156.07259339 258.02472471 137.84545898 234.99731445 C136.53974613 233.44989521 135.22785784 231.90765135 133.90795898 230.37231445 C133.42842773 229.76000977 132.94889648 229.14770508 132.45483398 228.5168457 C110.45220527 200.88710792 69.48365373 188.8266391 37.59521484 177.49487305 C29.77096276 174.69294736 22.1141732 171.69787367 14.58374023 168.1730957 C13.888004 167.84831741 13.19226776 167.52353912 12.47544861 167.18891907 C4.13472848 163.18676653 -4.0559524 157.64832802 -8.19750977 149.0871582 C-10.26549355 142.81096288 -10.263092 135.01197929 -7.52954102 128.93481445 C-3.23187171 121.73659801 3.60581005 117.85851136 11.34545898 115.18481445 C23.75422586 112.35056636 37.46450114 113.8860589 48.65014648 119.8996582 C55.06547848 124.08405295 58.45392444 130.24932187 60.90795898 137.37231445 C61.23795898 139.02231445 61.56795898 140.67231445 61.90795898 142.37231445 C90.61795898 142.37231445 119.32795898 142.37231445 148.90795898 142.37231445 C148.93735842 134.09955633 148.93735842 134.09955633 148.28466797 126.00805664 C148.07830971 124.29643341 148.07830971 124.29643341 147.86778259 122.55023193 C147.21275222 117.42129087 146.55588935 112.29274871 145.87451172 107.16723633 C145.5170621 104.46532576 145.17774418 101.76206151 144.85400391 99.0559082 C144.38440918 95.13059132 143.86498513 91.21270906 143.34155273 87.29418945 C143.2026915 86.08784851 143.06383026 84.88150757 142.92076111 83.63861084 C141.92097663 76.34068707 141.92097663 76.34068707 137.50073242 70.71826172 C136.32810607 69.89931819 135.13262493 69.11117465 133.90795898 68.37231445 C133.20517822 67.89173584 132.50239746 67.41115723 131.77832031 66.91601562 C131.18817139 66.58577393 130.59802246 66.25553223 129.98999023 65.9152832 C128.96047241 65.33665527 128.96047241 65.33665527 127.91015625 64.74633789 C127.18755615 64.35478516 126.46495605 63.96323242 125.72045898 63.55981445 C124.94436279 63.13603516 124.1682666 62.71225586 123.36865234 62.27563477 C101.63711527 50.6015789 80.1621159 43.60458344 55.90795898 39.37231445 C55.57795898 27.82231445 55.24795898 16.27231445 54.90795898 4.37231445 C35.10795898 4.37231445 15.30795898 4.37231445 -5.09204102 4.37231445 Z " fill="#EEEEEE" transform="translate(274.092041015625,57.627685546875)"/>
<path d="M0 0 C19.8 0 39.6 0 60 0 C60.33 11.55 60.66 23.1 61 35 C64.7125 35.680625 68.425 36.36125 72.25 37.0625 C95.12988711 41.54107184 130.57335312 51.0789313 146 70 C146.66447449 72.49537659 146.66447449 72.49537659 147.07495117 75.50610352 C147.23489059 76.63480362 147.39483002 77.76350372 147.55961609 78.92640686 C147.71912247 80.14823166 147.87862885 81.37005646 148.04296875 82.62890625 C148.30295403 84.51801979 148.30295403 84.51801979 148.56819153 86.44529724 C148.93294169 89.11534603 149.29277986 91.78550567 149.64428711 94.45727539 C150.09171066 97.85585493 150.55592581 101.25185865 151.02622509 104.64733982 C151.47675743 107.91102471 151.91588479 111.17623147 152.35546875 114.44140625 C152.52104782 115.64906143 152.68662689 116.85671661 152.85722351 118.10096741 C153.00770645 119.25173264 153.15818939 120.40249786 153.31323242 121.58813477 C153.51283821 123.08679832 153.51283821 123.08679832 153.71647644 124.61573792 C154.08901996 129.06258148 154 133.53757842 154 138 C125.29 138 96.58 138 67 138 C66.01 134.7 65.02 131.4 64 128 C60.16073209 119.85609837 54.06370076 115.12675432 45.875 111.6875 C32.62373529 108.51871931 18.68714699 108.39820527 6.6875 115.3125 C1.47828905 118.81687827 -2.01519938 122.96725075 -4 129 C-4.84084027 136.6360029 -4.86576775 143.77448345 0 150 C12.89051661 164.95535909 36.82590278 171.03862396 54.76074219 177.56298828 C80.72397907 187.03006197 106.56200708 197.18575872 128 215 C128.721875 215.55816406 129.44375 216.11632812 130.1875 216.69140625 C145.82414978 229.27008218 155.0874051 247.94629185 160 267 C160.36931641 268.41925781 160.36931641 268.41925781 160.74609375 269.8671875 C166.28325391 296.21643241 161.29665124 327.2125594 147.7109375 350.39453125 C140.66897498 361.11825044 132.73968467 370.35997005 122.29296875 377.97265625 C115.39919245 383.00604315 112.12415621 388.08134664 109 396 C108.49146484 397.2375 108.49146484 397.2375 107.97265625 398.5 C104.48883054 408.26113378 105.52964372 418.4411487 107.53515625 428.41015625 C108.65323157 434.63943306 109.06031939 439.85579223 105.75 445.4375 C102.99013509 449.30442937 100.54539257 451.48486914 96 453 C91.03139685 453.52166057 87.14481021 453.5724051 82.625 451.3125 C79.47334652 448.53604336 76.88688186 445.77376371 75 442 C74.90293287 439.85595831 74.87021464 437.70873249 74.875 435.5625 C74.87242187 434.40878906 74.86984375 433.25507813 74.8671875 432.06640625 C75 429 75 429 76 426 C76.17431213 423.37960286 76.27684435 420.80937916 76.3125 418.1875 C76.34150391 417.48818359 76.37050781 416.78886719 76.40039062 416.06835938 C76.46280518 410.93596216 75.36506524 408.0767859 72 404 C68.53969009 402.26984505 64.77455703 402.38210098 61 403 C57.98968299 405.85980116 56.07579724 408.41624253 55.87542725 412.60290527 C55.87496399 413.70525513 55.87450073 414.80760498 55.87402344 415.94335938 C55.86831329 417.81670959 55.86831329 417.81670959 55.86248779 419.72790527 C55.862197 420.73297371 55.862197 420.73297371 55.86190033 421.75834656 C55.85847858 424.58400851 55.83709755 427.4094417 55.81666946 430.2350235 C55.77873264 435.49395058 55.74737156 440.7526392 55.74951172 446.01171875 C55.75030431 449.67131398 55.72669784 453.33007838 55.6876297 456.98945618 C55.67724353 458.37669629 55.6755907 459.76403321 55.68328094 461.15129089 C55.73074939 470.67223999 54.86479337 478.59166303 48.29071045 485.90026855 C42.89278311 491.07604797 36.94987292 493.11810173 29.5625 493.4375 C21.30832203 493.18598765 14.77238297 489.77238297 9 484 C5.0093846 478.32104732 3.88500324 473.60286066 3.82641602 466.76611328 C3.81292618 465.50445343 3.79943634 464.24279358 3.78553772 462.94290161 C3.78047777 462.27136173 3.77541782 461.59982185 3.77020454 460.90793228 C3.75372555 458.79716726 3.730485 456.68657536 3.70530701 454.57589722 C3.63472345 448.57624006 3.5744907 442.57651272 3.52319336 436.57666016 C3.49130277 432.90203767 3.45000425 429.22761649 3.40299797 425.55315781 C3.38704084 424.15702831 3.37469042 422.76085256 3.36609077 421.36465836 C3.35386034 419.40725599 3.32866766 417.44994778 3.30297852 415.49267578 C3.28751732 413.82532883 3.28751732 413.82532883 3.27174377 412.1242981 C2.98410807 408.817287 2.1707516 406.09579535 1 403 C-6.12232825 402.31952496 -6.12232825 402.31952496 -12.5625 404.6875 C-16.28463825 410.67528763 -16.97425035 416.27992504 -15.546875 423.1953125 C-15.36640625 423.91460937 -15.1859375 424.63390625 -15 425.375 C-13.44894307 431.74660798 -13.03548907 438.10646722 -15.125 444.375 C-18.03333211 448.44666495 -21.16034238 451.38678079 -26 453 C-31.18844786 453.61336302 -35.90701874 453.48718586 -40.42578125 450.52734375 C-44.5674744 446.50897645 -46.84925465 441.3008501 -47.22265625 435.6015625 C-46.99765099 431.96200375 -46.37302562 428.7240621 -45.5 425.1875 C-42.95849239 413.65951333 -43.09709839 402.68196566 -49.6953125 392.34375 C-52.50658256 389.4848313 -55.53082798 387.95260171 -59.125 386.3125 C-60.55759692 385.62573876 -61.98852487 384.93548769 -63.41796875 384.2421875 C-64.16481934 383.88092773 -64.91166992 383.51966797 -65.68115234 383.14746094 C-69.65649136 381.18030013 -73.55058627 379.07297384 -77.4375 376.9375 C-78.51765381 376.35705933 -78.51765381 376.35705933 -79.61962891 375.76489258 C-81.78638316 374.5675805 -83.88688847 373.28950499 -86 372 C-87.13060852 371.37753387 -87.13060852 371.37753387 -88.28405762 370.74249268 C-92.1818165 368.25871176 -94.5412829 366.27065665 -96.13722229 361.84986877 C-96.90672696 357.90893094 -97.42012487 354.00860444 -97.84765625 350.01953125 C-98.03317864 348.55894666 -98.22215696 347.09879731 -98.41441345 345.63908386 C-98.90833441 341.81556187 -99.35407459 337.98791203 -99.79003906 334.15740967 C-100.24311929 330.25801693 -100.74437457 326.36484236 -101.24023438 322.47070312 C-104 300.55346272 -104 300.55346272 -104 295 C-73.64 295 -43.28 295 -12 295 C-10.68 299.29 -9.36 303.58 -8 308 C-3.05278559 317.49330334 3.87530946 323.0209468 13.875 326.6875 C27.75084302 330.59008085 44.33803941 328.90061111 56.87109375 322.12109375 C59 321 59 321 62 320 C63.11685196 318.16819875 63.11685196 318.16819875 64 316 C64.35320312 315.34902344 64.70640625 314.69804687 65.0703125 314.02734375 C68.4670185 307.29683371 69.34558483 300.92850301 67.33984375 293.58203125 C60.84899481 277.25656272 44.30201388 271.32127443 29.29248047 264.84985352 C21.96600364 261.7512784 14.56311596 258.88050885 7.125 256.0625 C-21.01715274 245.38427046 -47.8546657 233.84920269 -70 213 C-70.68835938 212.38769531 -71.37671875 211.77539062 -72.0859375 211.14453125 C-87.70174622 196.67058997 -97.11560745 173.17542052 -98.14038086 152.11499023 C-99.0931153 120.09028305 -92.66868582 93.89986309 -70.76171875 69.5078125 C-52.23081991 50.03672075 -26.5757005 38.41597277 0 36 C0 24.12 0 12.24 0 0 Z M2 2 C2 13.88 2 25.76 2 38 C-3.61 38.66 -9.22 39.32 -15 40 C-18.4343505 40.95496613 -21.44134686 41.85915938 -24.6875 43.1875 C-25.47511719 43.49502197 -26.26273437 43.80254395 -27.07421875 44.11938477 C-43.11138029 50.50919132 -56.56285115 58.96731127 -69 71 C-69.76183594 71.73605469 -70.52367187 72.47210938 -71.30859375 73.23046875 C-89.68534758 92.24419845 -96.4849491 118.63376788 -96.3581543 144.35473633 C-96.18628817 153.20358878 -95.26163816 161.43509253 -93 170 C-92.67515625 171.24136719 -92.67515625 171.24136719 -92.34375 172.5078125 C-84.08820121 199.92802813 -64.6936674 219.46625901 -40.1328125 233.03125 C-21.63879393 242.85379928 -2.18446476 250.65890937 17.37451172 258.05493164 C60.5505453 274.42386745 60.5505453 274.42386745 69.375 292.875 C71.1062124 301.53106198 70.45304521 309.27963168 66 317 C59.82256973 325.3539342 50.91412399 328.35154997 41 330 C26.44527227 331.30612015 12.0907571 330.5342085 -0.0703125 321.625 C-8.15944529 314.8130987 -11.13723156 307.01968955 -14 297 C-43.04 297 -72.08 297 -102 297 C-100.24825784 311.01393732 -98.48927137 324.9816826 -96.375 338.9375 C-96.04826904 341.10379432 -95.72244118 343.27021177 -95.39877319 345.43696594 C-95.09767842 347.44889056 -94.79233338 349.4601777 -94.48681641 351.47143555 C-94.08117393 354.41163151 -93.81348117 357.30728965 -93.609375 360.265625 C-93.30945811 363.95766416 -93.30945811 363.95766416 -91.3046875 366.20703125 C-82.73961478 371.86658895 -73.67134893 376.52291928 -64.5234375 381.16796875 C-62.68130703 382.1100563 -60.84012276 383.05399689 -59 384 C-58.13850342 384.44110107 -57.27700684 384.88220215 -56.3894043 385.33666992 C-55.59187744 385.75924072 -54.79435059 386.18181152 -53.97265625 386.6171875 C-53.27406494 386.98312012 -52.57547363 387.34905273 -51.85571289 387.72607422 C-46.84306685 391.16719868 -44.48580587 397.319751 -43 403 C-42.74428389 406.35893385 -42.76570525 409.69574082 -42.8125 413.0625 C-42.81314453 413.94744141 -42.81378906 414.83238281 -42.81445312 415.74414062 C-42.8430892 419.98546176 -43.08830028 423.84825976 -44 428 C-44.949998 437.16524507 -44.949998 437.16524507 -42.3125 445.6875 C-38.5611851 449.4388149 -36.43950969 450.86290384 -31.0625 451.375 C-25.99358669 451.16498853 -22.50536377 449.30193623 -18.6875 446 C-15.02615717 441.66063072 -15.66289018 436.37807764 -16 431 C-16.29397273 429.49179208 -16.62607415 427.99039947 -17 426.5 C-18.87429412 418.86798224 -18.99951719 411.89571929 -15 405 C-12.70095279 402.28294421 -11.10983992 401.19097895 -7.59375 400.5859375 C-4.92262864 400.43666895 -2.62387651 400.47256536 0 401 C3.05302794 403.82963565 4.91983539 406.41083092 5.13130188 410.60290527 C5.13478134 411.70525513 5.1382608 412.80760498 5.1418457 413.94335938 C5.14888016 415.19225952 5.15591461 416.44115967 5.16316223 417.72790527 C5.16497812 418.3979509 5.16679401 419.06799652 5.16866493 419.75834656 C5.17584238 421.86166287 5.1915225 423.96474747 5.21000671 426.06799316 C5.26238548 432.04920076 5.3103494 438.03028725 5.32592773 444.01171875 C5.336083 447.67123256 5.36560436 451.33017101 5.40724754 454.98945618 C5.4194657 456.37668986 5.42469579 457.76400522 5.42244911 459.15129089 C5.41168108 467.97869325 5.53973225 476.94430727 11.6764679 483.90026855 C16.7186199 488.6379229 22.26970692 491.1158706 29.1875 491.5625 C35.96552677 491.34747294 41.50482768 488.89344048 47 485 C51.89927878 479.54707138 53.1141488 474.1515758 53.15771484 466.96557617 C53.16797699 465.74718552 53.17823914 464.52879486 53.18881226 463.27348328 C53.19611359 461.95991348 53.20341492 460.64634369 53.2109375 459.29296875 C53.22391057 457.92539164 53.23772769 456.55782231 53.25234985 455.19026184 C53.31377312 449.39278096 53.36793094 443.59532279 53.40136719 437.79760742 C53.42239604 434.24609586 53.45776282 430.69496437 53.50212479 427.14367104 C53.52303827 425.14364848 53.52831865 423.14348202 53.53329468 421.14335632 C53.63253309 413.78816097 53.72774466 407.90153521 58.625 402.0625 C62.38408979 400.38080194 65.95492641 400.47898873 70 401 C73.45779806 402.35305141 74.64899994 403.44043468 76.6171875 406.578125 C78.31934752 410.79024978 78.37454704 414.14130666 78.25 418.625 C78.24484375 419.37523437 78.2396875 420.12546875 78.234375 420.8984375 C78.18426172 424.43142349 77.89116063 427.5965202 77 431 C76.51105486 436.30625711 76.3452973 440.64209811 78.6875 445.5 C82.56239381 449.68907439 85.23777313 451.17259515 90.9375 451.4375 C95.67260529 451.28952796 98.37660917 450.1815139 102 447 C105.75761841 442.72408939 106.21205983 438.99765491 106.16796875 433.50390625 C106.00151612 431.02260073 105.56913414 428.792811 105 426.375 C101.92237068 411.99042817 104.42725486 398.7221098 111.55859375 386 C114.60916679 381.76722657 118.53001572 378.48943029 122.55395508 375.2097168 C133.92071508 365.92230431 142.31366626 356.02977857 149 343 C149.39832031 342.23171875 149.79664063 341.4634375 150.20703125 340.671875 C162.71293732 314.56392766 164.01564976 282.66786892 154.45703125 255.4765625 C142.42504455 223.3678036 115.26938787 205.53893593 85.30078125 191.75 C73.13216162 186.33060527 60.56587912 181.86296975 48.06097412 177.29107666 C4.120051 161.22584146 4.120051 161.22584146 -4 147.4375 C-7.12759162 140.45892822 -7.54046954 132.54307965 -5.078125 125.28125 C-0.76975246 116.88831649 6.42258212 112.39958636 15 109 C28.02562225 106.16449039 42.61620493 107.27325937 54.4375 113.625 C62.86207906 119.16856418 65.30930879 126.77327198 69 136 C96.39 136 123.78 136 152 136 C150.56747754 119.91769762 150.56747754 119.91769762 148 104 C147.65119187 101.12168698 147.33665601 98.25918645 147.0625 95.375 C146.80302689 93.02661976 146.5337819 90.67952885 146.26220703 88.33251953 C146.09003334 86.80091111 145.92917965 85.26797937 145.78076172 83.73388672 C145.04622354 75.21927119 145.04622354 75.21927119 141.21484375 67.80078125 C138.58880629 65.86841406 135.91417982 64.46587815 133 63 C131.67603987 62.22585156 130.35737105 61.44261132 129.04296875 60.65234375 C107.1913779 47.69941204 84.03424649 40.85142254 59 37 C58.67 25.45 58.34 13.9 58 2 C39.52 2 21.04 2 2 2 Z " fill="#24281D" transform="translate(269,62)"/>
<path d="M0 0 C5.09486238 1.51403929 9.58403823 3.69568341 14.25 6.1875 C15.37063843 6.78316772 15.37063843 6.78316772 16.51391602 7.39086914 C23.08004233 10.9379561 29.6899258 14.6899258 35 20 C35.54421997 22.37512207 35.54421997 22.37512207 35.96142578 25.39257812 C36.12144073 26.52135376 36.28145569 27.65012939 36.44631958 28.81311035 C36.61098724 30.04009644 36.77565491 31.26708252 36.9453125 32.53125 C37.12005096 33.79207397 37.29478943 35.05289795 37.474823 36.35192871 C37.84361124 39.02809704 38.2090107 41.7044745 38.56884766 44.38183594 C39.02698584 47.78788842 39.49846124 51.19192413 39.97441292 54.59552765 C40.42991276 57.86483123 40.87469774 61.13558671 41.3203125 64.40625 C41.48902863 65.61704224 41.65774475 66.82783447 41.83157349 68.07531738 C41.98528412 69.2293103 42.13899475 70.38330322 42.29736328 71.57226562 C42.50149338 73.07545349 42.50149338 73.07545349 42.70974731 74.60900879 C43.09051309 79.05745482 43 83.53528784 43 88 C14.29 88 -14.42 88 -44 88 C-43.67 86.35 -43.34 84.7 -43 83 C-42.67 83.99 -42.34 84.98 -42 86 C-14.61 86 12.78 86 41 86 C40.67 85.01 40.34 84.02 40 83 C39.72796563 81.04591021 39.49346476 79.08648783 39.28125 77.125 C39.15363281 75.97515625 39.02601563 74.8253125 38.89453125 73.640625 C38.63151042 71.21354167 38.36848958 68.78645833 38.10546875 66.359375 C37.97785156 65.20953125 37.85023438 64.0596875 37.71875 62.875 C37.60466797 61.82054687 37.49058594 60.76609375 37.37304688 59.6796875 C37.06992312 56.90576955 37.06992312 56.90576955 36 54 C35.77167857 52.05096527 35.54770805 50.10121298 35.35644531 48.14819336 C35.11762411 45.7380642 34.83935065 43.33480554 34.5546875 40.9296875 C34.18688582 37.81009388 33.90592233 34.70401716 33.6953125 31.5703125 C33.16989324 25.85063435 32.51955984 21.50226756 28.25390625 17.28515625 C24.72073413 14.76012423 20.90549167 12.87415804 17 11 C15.52846679 10.25421738 14.05843478 9.50546602 12.58984375 8.75390625 C9.81110204 7.34055672 7.01663335 5.97145319 4.203125 4.62890625 C1 3 1 3 -1 1 C-0.67 0.67 -0.34 0.34 0 0 Z " fill="#253718" transform="translate(380,112)"/>
<path d="M0 0 C30.36 0 60.72 0 92 0 C93.32 4.29 94.64 8.58 96 13 C100.94721441 22.49330334 107.87530946 28.0209468 117.875 31.6875 C131.75084302 35.59008085 148.33803941 33.90061111 160.87109375 27.12109375 C163 26 163 26 166 25 C167.08431094 23.25132517 167.08431094 23.25132517 168 21 C169 19 170 17 171 15 C171.99 16.485 171.99 16.485 173 18 C167.03301902 28.19359251 159.0148695 32.62262734 147.79296875 35.58203125 C132.68431954 37.84304589 116.64827033 36.95419241 103.99609375 27.69140625 C98.04771961 22.65100311 92.96156602 16.70006039 91 9 C91 6.36 91 3.72 91 1 C61.3 1 31.6 1 1 1 C0.67 1.99 0.34 2.98 0 4 C0 2.68 0 1.36 0 0 Z " fill="#312F27" transform="translate(165,357)"/>
<path d="M0 0 C-3.6092827 2.15098666 -7.12943666 2.60975311 -11.25 3.25 C-34.12276617 7.20642709 -54.43076311 18.98491819 -71 35 C-71.68835938 35.66257813 -72.37671875 36.32515625 -73.0859375 37.0078125 C-85.20642565 49.60737133 -92.95548782 67.95073179 -96 85 C-96.66 84.34 -97.32 83.68 -98 83 C-97.67332565 77.45247564 -96.43498173 72.56219816 -94.4375 67.375 C-94.17501465 66.68841309 -93.9125293 66.00182617 -93.64208984 65.29443359 C-82.78737373 37.90879754 -61.71403225 19.11374576 -35.2890625 7.203125 C-24.34015935 2.49417724 -11.95330389 -2.1515947 0 0 Z " fill="#242A22" transform="translate(271,99)"/>
<path d="M0 0 C29.7 0 59.4 0 90 0 C89.67 0.66 89.34 1.32 89 2 C59.96 1.67 30.92 1.34 1 1 C1.99 6.28 2.98 11.56 4 17 C4.4849826 19.94469585 4.95934144 22.87999899 5.38671875 25.83203125 C5.49345413 26.56016525 5.60018951 27.28829926 5.7101593 28.03849792 C5.9294205 29.54420338 6.1469056 31.05016862 6.36254883 32.55639648 C6.69000236 34.82987365 7.02944836 37.10137009 7.36914062 39.37304688 C8.52236937 47.27332286 9.36110826 54.99597571 9 63 C7.01564509 60.02346764 6.62390095 58.75462759 6.13037109 55.3359375 C5.99037689 54.39065186 5.85038269 53.44536621 5.70614624 52.47143555 C5.56335236 51.44961182 5.42055847 50.42778809 5.2734375 49.375 C5.12089508 48.31772705 4.96835266 47.2604541 4.81118774 46.17114258 C4.48980081 43.92892546 4.17230943 41.68614706 3.85839844 39.44287109 C3.38055977 36.03959788 2.88652696 32.6389635 2.390625 29.23828125 C2.07974269 27.05482773 1.76981711 24.87123773 1.4609375 22.6875 C1.31409515 21.68187012 1.16725281 20.67624023 1.01596069 19.64013672 C0.88227081 18.66963379 0.74858093 17.69913086 0.61083984 16.69921875 C0.43335709 15.44371216 0.43335709 15.44371216 0.25228882 14.1628418 C-0.12315185 9.45609562 0 4.72169623 0 0 Z " fill="#19170F" transform="translate(166,358)"/>
<path d="M0 0 C0.33 0 0.66 0 1 0 C1.11645445 7.51973593 1.20499676 15.03937698 1.25906086 22.55981255 C1.28502497 26.05289708 1.32017526 29.5453594 1.37719727 33.03808594 C1.44251215 37.06450976 1.46628893 41.09029216 1.48828125 45.1171875 C1.51408768 46.35612762 1.5398941 47.59506775 1.56648254 48.87155151 C1.56923075 57.46186311 0.1628077 64.36429033 -5.71000671 70.90426636 C-11.11342588 76.07415014 -17.04868655 78.11803945 -24.4375 78.4375 C-32.69167797 78.18598765 -39.22761703 74.77238297 -45 69 C-47.42739015 65.80025844 -49.10330564 63.21384127 -48.75 59.0625 C-48.37875 58.0415625 -48.37875 58.0415625 -48 57 C-47.71382813 57.57878906 -47.42765625 58.15757812 -47.1328125 58.75390625 C-43.01798916 66.91260771 -38.9262765 72.0245745 -30 75 C-21.7748025 75.97257403 -14.93263369 74.62932004 -8 70 C0.31469062 62.0419214 -0.82619463 47.62729978 -0.5859375 37.01171875 C-0.50023886 32.57047952 -0.43629472 28.12913277 -0.375 23.6875 C-0.33674792 21.3860541 -0.2976922 19.0846214 -0.2578125 16.78320312 C-0.16260402 11.18892076 -0.07733633 5.5945565 0 0 Z " fill="#393935" transform="translate(323,477)"/>
<path d="M0 0 C2.24940363 3.37410545 1.96001104 3.90457127 1.3046875 7.63671875 C0.89616681 10.80537282 0.81020113 13.93099551 0.75 17.125 C0.72421875 18.30320312 0.6984375 19.48140625 0.671875 20.6953125 C1.12830256 25.29219008 2.65678512 27.88705053 6.1875 30.8125 C11.24571548 32.94819098 15.34895613 32.6541872 20.3125 30.6875 C24.78240089 27.90948649 24.78240089 27.90948649 26.66015625 23.15234375 C26.79292969 22.09144531 26.92570312 21.03054688 27.0625 19.9375 C27.79166667 14.20833333 27.79166667 14.20833333 30 12 C30.57619206 23.99333111 30.57619206 23.99333111 27 29 C23.00760442 33.00330376 19.45383292 35.12303702 13.75 35.3125 C9.09751351 35.21431441 5.40279353 34.30146965 2 31 C-2.74415032 24.09395839 -3.79498513 18.53804013 -2.34375 10.25390625 C-1.92609375 8.42666016 -1.92609375 8.42666016 -1.5 6.5625 C-1.2215625 5.32628906 -0.943125 4.09007812 -0.65625 2.81640625 C-0.4396875 1.88699219 -0.223125 0.95757812 0 0 Z " fill="#343121" transform="translate(225,480)"/>
<path d="M0 0 C3.60758907 1.73698733 5.48498146 3.31330861 7.875 6.5 C9.53068405 11.65101705 9.2343789 16.63532748 9 22 C8.67 22 8.34 22 8 22 C7.90203125 21.20335937 7.8040625 20.40671875 7.703125 19.5859375 C6.83008578 13.39940099 6.13535979 8.78150975 2 4 C-1.47393927 2.26303037 -5.2095801 2.41218087 -9 3 C-13.41092638 6.73232233 -14.74129849 11.92189994 -15.21148682 17.5163269 C-15.3260581 20.4791898 -15.3809945 23.4374526 -15.4140625 26.40234375 C-15.43342865 27.48004532 -15.4527948 28.55774689 -15.4727478 29.66810608 C-15.53225755 33.0911583 -15.57881456 36.51424466 -15.625 39.9375 C-15.66320608 42.26629025 -15.70225933 44.59506676 -15.7421875 46.92382812 C-15.83793547 52.61576299 -15.92306583 58.30778141 -16 64 C-16.33 64 -16.66 64 -17 64 C-17.07622759 56.58022664 -17.12867461 49.16055475 -17.16479492 41.74047852 C-17.17985705 39.21765367 -17.20031077 36.6948549 -17.22631836 34.17211914 C-17.26281383 30.54046176 -17.2797526 26.90915142 -17.29296875 23.27734375 C-17.30845261 22.15416245 -17.32393646 21.03098114 -17.33988953 19.87376404 C-17.34145747 12.53496942 -16.8554634 7.27538449 -11.875 1.5625 C-7.8390369 -0.63095821 -4.49674149 -0.77721458 0 0 Z " fill="#0E0C0F" transform="translate(339,462)"/>
<path d="M0 0 C10.17758942 3.50267688 15.484986 9.16377875 20.8828125 18.16015625 C22.12019095 21.32234563 22.24823948 23.66917848 22.0078125 27.03515625 C20.08819955 24.15573683 18.76144585 21.36156313 17.3203125 18.22265625 C13.07953057 9.75131114 8.35789708 6.19793593 -0.3671875 2.796875 C-7.00401784 0.87100905 -13.58661185 0.90861019 -20.4296875 0.97265625 C-21.35201172 0.97716797 -22.27433594 0.98167969 -23.22460938 0.98632812 C-25.48053798 0.99801687 -27.73632717 1.0144017 -29.9921875 1.03515625 C-21.62688678 -4.54171089 -9.34419298 -2.4680608 0 0 Z " fill="#1D2418" transform="translate(314.9921875,170.96484375)"/>
<path d="M0 0 C30.36 0 60.72 0 92 0 C92.99 4.95 92.99 4.95 94 10 C93.34 10.33 92.68 10.66 92 11 C91 9 91 9 91 1 C61.3 1 31.6 1 1 1 C0.67 1.99 0.34 2.98 0 4 C0 2.68 0 1.36 0 0 Z " fill="#3B3933" transform="translate(165,357)"/>
<path d="M0 0 C0.66 0.33 1.32 0.66 2 1 C1.33613281 1.59167969 0.67226563 2.18335938 -0.01171875 2.79296875 C-1.83371824 4.4234588 -3.64991503 6.0604511 -5.4609375 7.703125 C-7.22720058 9.30091376 -9.01265638 10.87763553 -10.8125 12.4375 C-18.62770487 21.59245428 -21.21779078 34.37999587 -23 46 C-23.33 46 -23.66 46 -24 46 C-24.92975676 33.11253826 -21.27666845 20.35266876 -12.8125 10.4375 C-8.6458418 6.82639623 -4.34176766 3.39753857 0 0 Z " fill="#1E1E1B" transform="translate(396,433)"/>
<path d="M0 0 C3.43815311 0.92923057 4.73413538 1.56928424 6.63598633 4.65039062 C8.13155649 8.32306337 8.42560273 11.01536214 8.51171875 14.96875 C8.52957932 15.63403214 8.54743988 16.29931427 8.56584167 16.98475647 C8.62016545 19.15643604 8.65388046 21.32791014 8.6875 23.5 C8.72243687 25.01426573 8.75842035 26.52850764 8.79541016 28.04272461 C8.96462206 35.56237637 9.01920007 43.07650546 8.94921875 50.59765625 C8.94405746 51.27585419 8.93889618 51.95405212 8.93357849 52.65280151 C8.90758501 55.85808147 8.86326524 59.06107937 8.7878418 62.265625 C8.69677604 69.22363334 9.36607579 74.53930108 12 81 C11.34 81 10.68 81 10 81 C6.73051042 74.16050237 6.58377438 68.00000965 6.61987495 60.48501205 C6.62907841 58.39050837 6.61866027 56.29688221 6.60325623 54.2024231 C6.56339734 48.25393816 6.56195658 42.30553002 6.56420898 36.35693359 C6.5642602 32.7035532 6.54504534 29.05065248 6.51487541 25.39740372 C6.50410223 23.34207768 6.51614364 21.28768658 6.52870178 19.23239136 C6.53718764 10.29568587 6.53718764 10.29568587 2 3 C1.34 2.01 0.68 1.02 0 0 Z " fill="#DCBE2B" transform="translate(268,461)"/>
<path d="M0 0 C-3.47665563 1.49577044 -6.96892356 2.56824952 -10.62207031 3.54711914 C-17.78537867 5.49245541 -24.53062454 7.90000814 -31.25 11.0625 C-32.3033252 11.55484131 -32.3033252 11.55484131 -33.37792969 12.05712891 C-37.34431872 13.984513 -40.61681482 16.13328734 -44 19 C-45.37691031 19.96507768 -46.7714163 20.90587775 -48.1875 21.8125 C-48.86167969 22.25207031 -49.53585938 22.69164063 -50.23046875 23.14453125 C-50.81441406 23.42683594 -51.39835938 23.70914063 -52 24 C-52.66 23.67 -53.32 23.34 -54 23 C-42.47064635 13.58714605 -15.80270876 -5.13588035 0 0 Z " fill="#4CBE23" transform="translate(263,102)"/>
<path d="M0 0 C0.66 0.99 1.32 1.98 2 3 C-3.4282176 12.27320507 -10.63549637 17.28265879 -21 20 C-27.43977742 21.35855769 -33.51572313 20.87991231 -40 20 C-40 19.67 -40 19.34 -40 19 C-38.69546875 18.92523438 -37.3909375 18.85046875 -36.046875 18.7734375 C-25.23511339 18.01085081 -17.36968104 16.66807866 -8 11 C-7.01 10.67 -6.02 10.34 -5 10 C-3.91568906 8.25132517 -3.91568906 8.25132517 -3 6 C-2 4 -1 2 0 0 Z " fill="#2B2C23" transform="translate(336,372)"/>
<path d="M0 0 C0.66 0.33 1.32 0.66 2 1 C-2.22136487 5.96010373 -6.57934085 10.65108246 -11.30078125 15.140625 C-13.01697672 17.01857682 -13.96825095 18.69039663 -15 21 C-16.36443353 23.3390289 -17.77098317 25.6434295 -19.234375 27.921875 C-21.53851556 31.52717729 -23.5995998 34.92610852 -25 39 C-25.7109375 37.44140625 -25.7109375 37.44140625 -26 35 C-24.98128683 32.49491879 -23.93046941 30.28550918 -22.625 27.9375 C-22.26140381 27.27282715 -21.89780762 26.6081543 -21.52319336 25.92333984 C-15.89702164 15.94819861 -8.23062511 7.88038574 0 0 Z " fill="#5DC825" transform="translate(207,126)"/>
<path d="M0 0 C-1 2 -1 2 -2.85546875 2.7109375 C-3.62503906 2.93007812 -4.39460938 3.14921875 -5.1875 3.375 C-12.98586587 5.85910704 -18.34248319 10.08359389 -22.25 17.3125 C-23.32361546 21.15962207 -23.67113643 25.02767426 -24 29 C-24.33 29 -24.66 29 -25 29 C-26.40779609 22.32342252 -26.31433369 17.85148366 -22.57421875 12.03125 C-17.89918569 5.99894928 -8.06550261 -2.98516303 0 0 Z " fill="#2A3220" transform="translate(288,171)"/>
<path d="M0 0 C5.10335527 0.47843956 9.10195428 2.79634299 13 6 C18.85018361 13.14369154 20.31195353 20.35808745 20.125 29.375 C20.11597656 30.20644531 20.10695312 31.03789062 20.09765625 31.89453125 C20.0742622 33.92981337 20.03839725 35.96494564 20 38 C19.67 38 19.34 38 19 38 C18.97421875 37.21238281 18.9484375 36.42476563 18.921875 35.61328125 C18.39374893 25.47086018 17.231376 14.68253136 10 7 C7.45682874 5.19945162 7.45682874 5.19945162 4.75 3.75 C3.15418612 2.8552373 1.56670447 1.94480651 0 1 C0 0.67 0 0.34 0 0 Z " fill="#201D1C" transform="translate(207,445)"/>
<path d="M0 0 C6.59408369 2.15270773 9.81007499 7.09655472 13.11328125 12.984375 C15.79600508 19.13811118 16.25787597 26.50590009 13.98046875 32.83203125 C13.49513672 33.90517578 13.49513672 33.90517578 13 35 C12.67 35 12.34 35 12 35 C12.06960938 33.42412109 12.06960938 33.42412109 12.140625 31.81640625 C12.47933663 21.008543 11.60659017 13.98222137 4.3125 5.5625 C3.71050781 4.92441406 3.10851562 4.28632813 2.48828125 3.62890625 C1 2 1 2 0 0 Z " fill="#27291A" transform="translate(325,339)"/>
<path d="M0 0 C1.65 0 3.3 0 5 0 C4.01 1.485 4.01 1.485 3 3 C2.76034953 5.46384903 2.62758 7.82540576 2.5859375 10.29296875 C2.56657135 10.99899734 2.5472052 11.70502594 2.5272522 12.43244934 C2.46754776 14.68401061 2.4211086 16.93562328 2.375 19.1875 C2.33681171 20.71551689 2.29775948 22.24351245 2.2578125 23.77148438 C2.16185404 27.51414935 2.07778989 31.2569151 2 35 C1.01 35.495 1.01 35.495 0 36 C0 24.12 0 12.24 0 0 Z " fill="#41AC25" transform="translate(271,64)"/>
<path d="M0 0 C-3.64016178 2.17851114 -7.44281361 2.71176726 -11.5625 3.375 C-17.64578165 4.40710889 -23.09290455 5.91533819 -28.765625 8.42578125 C-31 9 -31 9 -33.296875 8.10546875 C-33.85890625 7.74066406 -34.4209375 7.37585938 -35 7 C-9.08870968 -1.97580645 -9.08870968 -1.97580645 0 0 Z " fill="#333432" transform="translate(271,99)"/>
<path d="M0 0 C4.09562884 4.97950238 4.51708971 8.31894483 4.171875 14.4609375 C4.14401917 15.25150543 4.11616333 16.04207336 4.08746338 16.8565979 C3.99462203 19.36396557 3.87277538 21.86893774 3.75 24.375 C3.68166997 26.08195533 3.61524355 27.78898799 3.55078125 29.49609375 C3.38920532 33.66528004 3.20161935 37.83256606 3 42 C2.67 42 2.34 42 2 42 C1.98018066 40.97116699 1.96036133 39.94233398 1.93994141 38.88232422 C1.86357574 35.04663602 1.77490731 31.21131192 1.68261719 27.37597656 C1.6444549 25.71947444 1.60958025 24.06289305 1.578125 22.40625 C1.532196 20.01794199 1.47424963 17.63017368 1.4140625 15.2421875 C1.40251129 14.50757294 1.39096008 13.77295837 1.37905884 13.01608276 C1.25555273 8.66332206 0.58925183 5.05398625 -1 1 C-3.97 0.67 -6.94 0.34 -10 0 C-10 -0.33 -10 -0.66 -10 -1 C-3.29268293 -2.52439024 -3.29268293 -2.52439024 0 0 Z " fill="#34322D" transform="translate(271,464)"/>
<path d="M0 0 C0.66 0.99 1.32 1.98 2 3 C1.171875 6.0390625 1.171875 6.0390625 -0.25 9.625 C-2.33285814 15.04197768 -3.91802801 20.29505676 -5 26 C-5.66 25.34 -6.32 24.68 -7 24 C-6.69480347 18.0259403 -5.14107155 13.02171061 -2.9375 7.5 C-2.65583984 6.77296875 -2.37417969 6.0459375 -2.08398438 5.296875 C-1.39741552 3.52808745 -0.69986318 1.76356959 0 0 Z " fill="#30342A" transform="translate(180,158)"/>
<path d="M0 0 C4.57134774 4.57134774 4.125 14.59732618 4.125 20.875 C4.08375 21.90625 4.0425 22.9375 4 24 C3.34 24.33 2.68 24.66 2 25 C0.7472283 16.61090382 -0.36011137 8.50262969 0 0 Z " fill="#2B3425" transform="translate(419,174)"/>
<path d="M0 0 C2.19413151 3.29119726 2.2045464 3.75125478 1.7578125 7.44921875 C1.66113281 8.29677734 1.56445312 9.14433594 1.46484375 10.01757812 C1.35269531 10.89865234 1.24054688 11.77972656 1.125 12.6875 C1.02058594 13.58017578 0.91617188 14.47285156 0.80859375 15.39257812 C0.54931018 17.59648849 0.27941634 19.79856669 0 22 C-0.99 21.67 -1.98 21.34 -3 21 C-3.15639125 15.93683317 -2.62766071 11.49601562 -1.5 6.5625 C-1.2215625 5.32628906 -0.943125 4.09007812 -0.65625 2.81640625 C-0.4396875 1.88699219 -0.223125 0.95757812 0 0 Z " fill="#484531" transform="translate(225,480)"/>
<path d="M0 0 C0.66 0.99 1.32 1.98 2 3 C1.390625 5.75 1.390625 5.75 0.25 9 C-1.73019359 14.96065029 -3.05537277 20.7977765 -4 27 C-4.33 27 -4.66 27 -5 27 C-5.62960618 18.27295884 -3.90058318 11.20084562 -1 3 C-0.67 2.01 -0.34 1.02 0 0 Z " fill="#2B2719" transform="translate(377,452)"/>
<path d="M0 0 C0.680625 0.12117188 1.36125 0.24234375 2.0625 0.3671875 C10.67911538 1.85676197 19.31990086 2.9645567 28 4 C28 4.33 28 4.66 28 5 C18.19293733 5.31042285 9.36818258 5.39925415 0 2 C0 1.34 0 0.68 0 0 Z " fill="#262215" transform="translate(278,388)"/>
<path d="M0 0 C2.83137298 3.34768217 4.25012544 6.77240194 5.75 10.875 C6.42289062 12.66550781 6.42289062 12.66550781 7.109375 14.4921875 C8.0378695 18.14915268 7.90864211 20.37651257 7 24 C6.67 24 6.34 24 6 24 C5.74476563 22.89205078 5.74476563 22.89205078 5.484375 21.76171875 C3.78171305 14.63408603 1.64908945 7.83115453 -1 1 C-0.67 0.67 -0.34 0.34 0 0 Z " fill="#303126" transform="translate(420,307)"/>
<path d="M0 0 C0.33 0 0.66 0 1 0 C1.3383344 2.37438249 1.67079002 4.74934959 2 7.125 C2.14308594 8.12273437 2.14308594 8.12273437 2.2890625 9.140625 C2.83523693 13.11989582 3.28584714 16.98622968 3 21 C2.34 21.66 1.68 22.32 1 23 C-1.15408416 15.11355966 -0.937402 8.08192533 0 0 Z " fill="#3C4932" transform="translate(417,153)"/>
<path d="M0 0 C0 0.33 0 0.66 0 1 C-1.60875 1.0928125 -1.60875 1.0928125 -3.25 1.1875 C-7.04067841 1.67813512 -7.04067841 1.67813512 -9.3125 4.125 C-11.25898059 7.44122619 -12.12201843 10.26857832 -13 14 C-13.66 14 -14.32 14 -15 14 C-14.66344834 7.49333455 -13.62130425 4.62130425 -9 0 C-5.93109813 -1.53445094 -3.29905734 -0.54984289 0 0 Z " fill="#2B2A25" transform="translate(337,463)"/>
<path d="M0 0 C0.33 0 0.66 0 1 0 C0.96777344 0.58007812 0.93554688 1.16015625 0.90234375 1.7578125 C0.94191429 4.42222899 1.13559785 6.46853655 2 9 C4.7233719 11.54352659 7.6970324 13.29847124 11 15 C10.01 15.66 9.02 16.32 8 17 C4.59629418 14.99625895 1.60613552 12.98969982 -1 10 C-1.49488254 6.44818677 -0.94746016 3.43713651 0 0 Z " fill="#3D3C30" transform="translate(175,417)"/>
<path d="M0 0 C5.16231353 0.6835119 10.09143249 1.67621454 15.1171875 3.046875 C14.4571875 3.706875 13.7971875 4.366875 13.1171875 5.046875 C7.3255038 4.64044106 1.75622449 3.39136761 -3.8828125 2.046875 C-1.8828125 0.046875 -1.8828125 0.046875 0 0 Z " fill="#2F372A" transform="translate(339.8828125,98.953125)"/>
<path d="M0 0 C0.33 0 0.66 0 1 0 C1.33910994 2.04071515 1.67102704 4.08262621 2 6.125 C2.185625 7.26195312 2.37125 8.39890625 2.5625 9.5703125 C2.97315984 12.78959233 3.22522996 15.76231931 3 19 C2.34 19.66 1.68 20.32 1 21 C0.6377756 18.06328811 0.28491613 15.12596806 -0.0625 12.1875 C-0.16626953 11.35412109 -0.27003906 10.52074219 -0.37695312 9.66210938 C-0.47041016 8.85966797 -0.56386719 8.05722656 -0.66015625 7.23046875 C-0.74918213 6.49207764 -0.83820801 5.75368652 -0.92993164 4.99291992 C-1 3 -1 3 0 0 Z " fill="#353321" transform="translate(167,362)"/>
<path d="M0 0 C5.58507504 2.69319824 10.9400039 5.40473961 16 9 C15.01 9.66 14.02 10.32 13 11 C8.38 8.03 3.76 5.06 -1 2 C-0.67 1.34 -0.34 0.68 0 0 Z " fill="#282D1F" transform="translate(374,262)"/>
<path d="M0 0 C0.33 0 0.66 0 1 0 C1.33 6.27 1.66 12.54 2 19 C5.96 19.99 5.96 19.99 10 21 C10 21.33 10 21.66 10 22 C6.7 22 3.4 22 0 22 C0 14.74 0 7.48 0 0 Z " fill="#070004" transform="translate(328,78)"/>
<path d="M0 0 C1.32 0.33 2.64 0.66 4 1 C3.34 1.66 2.68 2.32 2 3 C1.62731113 5.91188245 1.62731113 5.91188245 1.5859375 9.3203125 C1.54726563 10.57714844 1.50859375 11.83398438 1.46875 13.12890625 C1.4378125 14.44761719 1.406875 15.76632813 1.375 17.125 C1.33681971 18.46486918 1.29776794 19.80471383 1.2578125 21.14453125 C1.1632797 24.42954619 1.07772844 27.71455138 1 31 C0.67 31 0.34 31 0 31 C0 20.77 0 10.54 0 0 Z " fill="#52D82A" transform="translate(272,64)"/>
<path d="M0 0 C5.28 1.98 10.56 3.96 16 6 C15.67 6.66 15.34 7.32 15 8 C9.27789404 6.13236819 3.62338249 4.14710968 -2 2 C-1.34 1.34 -0.68 0.68 0 0 Z " fill="#282D1B" transform="translate(337,245)"/>
<path d="M0 0 C0.33 0 0.66 0 1 0 C1.38831218 2.95714663 1.76115547 5.91483273 2.125 8.875 C2.23714844 9.71675781 2.34929687 10.55851562 2.46484375 11.42578125 C2.56152344 12.23144531 2.65820312 13.03710938 2.7578125 13.8671875 C2.8520752 14.61081543 2.94633789 15.35444336 3.04345703 16.12060547 C3 18 3 18 1 20 C-0.7958955 13.02420757 -1.12067256 7.11778518 0 0 Z " fill="#38362C" transform="translate(373,473)"/>
<path d="M0 0 C0.66 0 1.32 0 2 0 C2.495 1.0725 2.99 2.145 3.5 3.25 C5.97394771 7.66904429 9.40988847 9.20629137 14 11 C14 11.33 14 11.66 14 12 C9.83323968 11.75489645 7.52292731 11.40672124 4.1875 8.8125 C1.92448434 5.90290844 0.9080469 3.54963786 0 0 Z " fill="#242524" transform="translate(223,502)"/>
<path d="M0 0 C0.33 0 0.66 0 1 0 C1.00257813 0.71285156 1.00515625 1.42570312 1.0078125 2.16015625 C1.26841395 8.61438541 2.12143633 12.23259603 6.72265625 16.85546875 C7.14417969 17.23316406 7.56570312 17.61085938 8 18 C7.34 18.33 6.68 18.66 6 19 C0.04134813 13.19413408 0.04134813 13.19413408 -0.09765625 9.1796875 C-0.08605469 8.08914063 -0.07445312 6.99859375 -0.0625 5.875 C-0.05347656 4.77929688 -0.04445312 3.68359375 -0.03515625 2.5546875 C-0.02355469 1.71164062 -0.01195312 0.86859375 0 0 Z " fill="#E4C725" transform="translate(225,492)"/>
<path d="M0 0 C5.03163018 4.29785078 10.02718443 8.63425542 15 13 C14.01 13.495 14.01 13.495 13 14 C3.4655115 5.7904032 3.4655115 5.7904032 0 2 C0 1.34 0 0.68 0 0 Z " fill="#121411" transform="translate(195,269)"/>
<path d="M0 0 C0.66 0 1.32 0 2 0 C0.23570801 4.97209562 -2.3939166 9.43438061 -5 14 C-5.67578125 12.328125 -5.67578125 12.328125 -6 10 C-4.85546875 7.421875 -4.85546875 7.421875 -3.1875 4.75 C-2.37345703 3.41195312 -2.37345703 3.41195312 -1.54296875 2.046875 C-1.03378906 1.37140625 -0.52460938 0.6959375 0 0 Z " fill="#1F261B" transform="translate(187,146)"/>
<path d="M0 0 C0.33 0 0.66 0 1 0 C1.96205088 6.37358711 2.10655578 12.55929529 2 19 C-0.13418226 15.79872662 -0.37474539 14.36780108 -0.6875 10.625 C-0.77386719 9.68914062 -0.86023438 8.75328125 -0.94921875 7.7890625 C-0.99955916 5.02421231 -0.64806108 2.67995185 0 0 Z " fill="#343220" transform="translate(173,402)"/>
<path d="M0 0 C0.74609375 1.734375 0.74609375 1.734375 1 4 C-0.65234375 6.140625 -0.65234375 6.140625 -2.9375 8.25 C-3.68902344 8.95640625 -4.44054687 9.6628125 -5.21484375 10.390625 C-5.80394531 10.92171875 -6.39304687 11.4528125 -7 12 C-7.66 11.34 -8.32 10.68 -9 10 C-8.27683594 9.29423828 -8.27683594 9.29423828 -7.5390625 8.57421875 C-6.90742188 7.95160156 -6.27578125 7.32898438 -5.625 6.6875 C-4.68527344 5.76517578 -4.68527344 5.76517578 -3.7265625 4.82421875 C-1.81913393 2.91187472 -1.81913393 2.91187472 0 0 Z " fill="#34342D" transform="translate(406,422)"/>
<path d="M0 0 C3.9520518 0.58172725 6.22095053 2.55157741 9.25 5.0625 C10.14203125 5.79597656 11.0340625 6.52945312 11.953125 7.28515625 C12.62859375 7.85105469 13.3040625 8.41695313 14 9 C13.34 9.66 12.68 10.32 12 11 C9.99702215 9.35767739 7.99756092 7.71138756 6 6.0625 C5.42765625 5.59392578 4.8553125 5.12535156 4.265625 4.64257812 C2.82502935 3.45065672 1.41025129 2.22767412 0 1 C0 0.67 0 0.34 0 0 Z " fill="#1B1C18" transform="translate(388,272)"/>
<path d="M0 0 C0.66 0 1.32 0 2 0 C0.40956621 5.08938811 -2.7446951 8.87456643 -6 13 C-6.33 12.01 -6.66 11.02 -7 10 C-5.63671875 7.51953125 -5.63671875 7.51953125 -3.6875 4.8125 C-3.05199219 3.91144531 -2.41648437 3.01039063 -1.76171875 2.08203125 C-1.18035156 1.39496094 -0.59898437 0.70789063 0 0 Z " fill="#1E1E1B" transform="translate(414,411)"/>
<path d="M0 0 C0.33 0.66 0.66 1.32 1 2 C-5.57849492 2.95494281 -11.41816638 2.8931507 -18 2 C-18 1.67 -18 1.34 -18 1 C-16.12528812 0.83012319 -14.25021305 0.66425224 -12.375 0.5 C-11.33085937 0.4071875 -10.28671875 0.314375 -9.2109375 0.21875 C-6.12853212 0.00875645 -3.08834771 -0.03709727 0 0 Z " fill="#413E34" transform="translate(314,390)"/>
<path d="M0 0 C4.99923125 1.32332592 8.39786925 4.60768155 11 9 C10.67 9.99 10.34 10.98 10 12 C8.33032474 10.19019128 6.66417692 8.3773524 5 6.5625 C4.28457031 5.7880957 4.28457031 5.7880957 3.5546875 4.99804688 C0 1.11328125 0 1.11328125 0 0 Z " fill="#1B1A13" transform="translate(325,339)"/>
<path d="M0 0 C4.28008379 3.8373165 6.86273219 7.52917945 7.1875 13.375 C7.125625 14.24125 7.06375 15.1075 7 16 C5.25066712 13.37600067 3.80267425 10.80525467 2.375 8 C1.92898438 7.13375 1.48296875 6.2675 1.0234375 5.375 C0 3 0 3 0 0 Z " fill="#151A12" transform="translate(330,182)"/>
<path d="M0 0 C-5.1468192 3.16727335 -9.158256 3.35050464 -15 3 C-12.41464321 1.27642881 -10.96188386 0.55264982 -8.0625 -0.1875 C-7.39347656 -0.36667969 -6.72445312 -0.54585938 -6.03515625 -0.73046875 C-3.75319112 -1.03268678 -2.17973341 -0.68756692 0 0 Z " fill="#393730" transform="translate(249,512)"/>
<path d="M0 0 C0.99 0.33 1.98 0.66 3 1 C0.38928701 3.06681445 -2.33837839 4.93109607 -5.125 6.75 C-5.80820313 7.19859375 -6.49140625 7.6471875 -7.1953125 8.109375 C-7.79085937 8.40328125 -8.38640625 8.6971875 -9 9 C-9.66 8.67 -10.32 8.34 -11 8 C-9.5433323 6.85204994 -8.08461063 5.70670581 -6.625 4.5625 C-5.40683594 3.60537109 -5.40683594 3.60537109 -4.1640625 2.62890625 C-2 1 -2 1 0 0 Z " fill="#57CF26" transform="translate(220,117)"/>
<path d="M0 0 C-3.06246747 1.78409802 -5.22079273 2.22880021 -8.75 2.125 C-9.54921875 2.10695313 -10.3484375 2.08890625 -11.171875 2.0703125 C-11.77515625 2.04710938 -12.3784375 2.02390625 -13 2 C-13 1.34 -13 0.68 -13 0 C-8.37078475 -1.0161692 -4.65537393 -0.83796731 0 0 Z " fill="#293226" transform="translate(271,99)"/>
<path d="M0 0 C0.66 0 1.32 0 2 0 C2.05416188 1.60379341 2.09286638 3.20811406 2.125 4.8125 C2.14820313 5.70582031 2.17140625 6.59914063 2.1953125 7.51953125 C2 10 2 10 0 13 C-0.96661363 9.87819599 -0.98988909 7.47916205 -0.5625 4.25 C-0.46066406 3.45078125 -0.35882813 2.6515625 -0.25390625 1.828125 C-0.17011719 1.22484375 -0.08632813 0.6215625 0 0 Z " fill="#312D24" transform="translate(322,526)"/>
<path d="M0 0 C2.40575607 2.18517099 3.79535581 4.25919671 5.1875 7.1875 C5.53167969 7.90292969 5.87585938 8.61835938 6.23046875 9.35546875 C6.48441406 9.89816406 6.73835938 10.44085938 7 11 C6.01 11 5.02 11 4 11 C0 4.5 0 4.5 0 0 Z " fill="#27251C" transform="translate(258,367)"/>
<path d="M0 0 C-1.62249941 0.83819158 -3.24808497 1.6704116 -4.875 2.5 C-6.23238281 3.19609375 -6.23238281 3.19609375 -7.6171875 3.90625 C-10 5 -10 5 -12 5 C-12 4.34 -12 3.68 -12 3 C-10.75823305 2.29773859 -9.50614401 1.61370891 -8.25 0.9375 C-7.20585937 0.36322266 -7.20585937 0.36322266 -6.140625 -0.22265625 C-3.63859372 -1.1312406 -2.4667645 -0.88336837 0 0 Z " fill="#20211F" transform="translate(238,108)"/>
<path d="M0 0 C1.32 0.33 2.64 0.66 4 1 C4 1.66 4 2.32 4 3 C7.3 3.99 10.6 4.98 14 6 C14 6.33 14 6.66 14 7 C8.7094723 7.66131596 5.84303382 6.04553852 1.5390625 3.2890625 C1.03117187 2.86367188 0.52328125 2.43828125 0 2 C0 1.34 0 0.68 0 0 Z " fill="#E6C226" transform="translate(282,545)"/>
<path d="M0 0 C3.45195767 1.4258086 5.1014256 3.09746334 7.25 6.125 C8.03117187 7.21167969 8.03117187 7.21167969 8.828125 8.3203125 C9.40820312 9.15175781 9.40820312 9.15175781 10 10 C7 10 7 10 5.17578125 8.3203125 C4.56089844 7.59585937 3.94601562 6.87140625 3.3125 6.125 C2.68988281 5.40570313 2.06726563 4.68640625 1.42578125 3.9453125 C0 2 0 2 0 0 Z " fill="#272924" transform="translate(401,282)"/>
<path d="M0 0 C4.75481646 0.57634139 7.97048212 2.55068521 12 5 C9.44345185 5.95582656 8.39658231 6.17802782 5.859375 5.0390625 C5.16328125 4.57242188 4.4671875 4.10578125 3.75 3.625 C3.04359375 3.16351563 2.3371875 2.70203125 1.609375 2.2265625 C1.07828125 1.82179687 0.5471875 1.41703125 0 1 C0 0.67 0 0.34 0 0 Z " fill="#161B12" transform="translate(278,222)"/>
<path d="M0 0 C1 4 1 4 0.00390625 5.703125 C-1.33072917 7.13541667 -2.66536458 8.56770833 -4 10 C-4.99 9.67 -5.98 9.34 -7 9 C-4.69 6.03 -2.38 3.06 0 0 Z " fill="#2B3229" transform="translate(194,136)"/>
<path d="M0 0 C4.75481646 0.57634139 7.97048212 2.55068521 12 5 C11.34 5.66 10.68 6.32 10 7 C8.33073546 6.02526874 6.66464358 5.04510211 5 4.0625 C4.071875 3.51722656 3.14375 2.97195313 2.1875 2.41015625 C1.465625 1.94480469 0.74375 1.47945313 0 1 C0 0.67 0 0.34 0 0 Z " fill="#212120" transform="translate(184,433)"/>
<path d="M0 0 C2.79061042 1.39530521 4.08430943 3.56184836 6 6 C6.98230498 7.0173873 7.97469597 8.02596117 9 9 C4.74822077 8.52758009 2.70030797 6.15035929 0 3 C0 2.01 0 1.02 0 0 Z " fill="#E8CD2C" transform="translate(347,503)"/>
<path d="M0 0 C5.71658336 -0.45732667 8.48649253 0.47726246 13 4 C12.34 4.66 11.68 5.32 11 6 C10.113125 5.360625 9.22625 4.72125 8.3125 4.0625 C5.30788572 2.19170243 3.4489629 1.40576034 0 1 C0 0.67 0 0.34 0 0 Z " fill="#1B1A16" transform="translate(332,462)"/>
<path d="M0 0 C4.85042388 0.41575062 6.84319505 2.41659978 10 6 C10.99 7.485 10.99 7.485 12 9 C11.01 9 10.02 9 9 9 C8.566875 8.236875 8.13375 7.47375 7.6875 6.6875 C5.60477528 3.37056804 3.55219959 2.4998176 0 1 C0 0.67 0 0.34 0 0 Z " fill="#D8C325" transform="translate(337,461)"/>
<path d="M0 0 C4.55737263 0.43820891 7.57653445 0.85041169 11 4 C8 5 8 5 5.95703125 4.22265625 C5.24933594 3.83980469 4.54164063 3.45695312 3.8125 3.0625 C3.09707031 2.68222656 2.38164062 2.30195313 1.64453125 1.91015625 C1.10183594 1.60980469 0.55914062 1.30945313 0 1 C0 0.67 0 0.34 0 0 Z " fill="#2C2F25" transform="translate(236,300)"/>
<path d="M0 0 C0.33 0.99 0.66 1.98 1 3 C-0.75 6.1875 -0.75 6.1875 -3 9 C-3.99 9 -4.98 9 -6 9 C-4.02 6.03 -2.04 3.06 0 0 Z " fill="#23221B" transform="translate(321,538)"/>
<path d="M0 0 C3.60271909 0.97370786 4.79777091 1.6899154 6.875 4.875 C8.04541473 8.12615202 7.98612444 8.87952402 7 12 C6.74605469 11.46890625 6.49210937 10.9378125 6.23046875 10.390625 C4.41650476 6.6675828 2.6686482 3.20237785 0 0 Z " fill="#E2CA28" transform="translate(268,461)"/>
<path d="M0 0 C1.8871875 0.061875 1.8871875 0.061875 3.8125 0.125 C3.8125 0.455 3.8125 0.785 3.8125 1.125 C2.595625 1.393125 1.37875 1.66125 0.125 1.9375 C-3.40871044 2.80994361 -6.1643282 4.04656939 -9.1875 6.125 C-7.20938974 1.56013016 -5.01716504 -0.16449721 0 0 Z " fill="#111215" transform="translate(263.1875,461.875)"/>
<path d="M0 0 C0.66 0.99 1.32 1.98 2 3 C0.02 5.97 0.02 5.97 -2 9 C-2.99 8.67 -3.98 8.34 -5 8 C-3.35 5.36 -1.7 2.72 0 0 Z " fill="#33342C" transform="translate(336,372)"/>
<path d="M0 0 C0.99 0.33 1.98 0.66 3 1 C0.36 2.98 -2.28 4.96 -5 7 C-5 6.01 -5 5.02 -5 4 C-2.6875 1.75 -2.6875 1.75 0 0 Z " fill="#262D22" transform="translate(209,122)"/>
<path d="M0 0 C3.99455527 0.61454696 6.74466336 2.70646737 10 5 C9.34 5.66 8.68 6.32 8 7 C6.66382648 6.02471263 5.3311249 5.04466681 4 4.0625 C3.2575 3.51722656 2.515 2.97195313 1.75 2.41015625 C1.1725 1.94480469 0.595 1.47945313 0 1 C0 0.67 0 0.34 0 0 Z " fill="#1A1E16" transform="translate(209,283)"/>
<path d="M0 0 C3.95820859 0.56545837 6.6659053 1.80902348 10 4 C9.34 4.66 8.68 5.32 8 6 C6.66402348 5.19185349 5.331275 4.37836819 4 3.5625 C3.2575 3.11003906 2.515 2.65757812 1.75 2.19140625 C1.1725 1.79824219 0.595 1.40507812 0 1 C0 0.67 0 0.34 0 0 Z " fill="#2A2825" transform="translate(207,445)"/>
<path d="M0 0 C3.82097239 0.53069061 6.06171403 1.49701566 9 4 C8.67 4.66 8.34 5.32 8 6 C6.66402348 5.19185349 5.331275 4.37836819 4 3.5625 C3.2575 3.11003906 2.515 2.65757813 1.75 2.19140625 C1.1725 1.79824219 0.595 1.40507813 0 1 C0 0.67 0 0.34 0 0 Z " fill="#141814" transform="translate(396,121)"/>
<path d="M0 0 C2.56687367 3.8503105 1.83288724 5.58569763 1 10 C0.34 9.34 -0.32 8.68 -1 8 C-0.96712417 5.27130593 -0.43602229 2.7033382 0 0 Z " fill="#3C4835" transform="translate(174,174)"/>
<path d="M0 0 C4.455 0.99 4.455 0.99 9 2 C9 2.33 9 2.66 9 3 C5.7 3 2.4 3 -1 3 C-0.67 2.01 -0.34 1.02 0 0 Z " fill="#181E15" transform="translate(329,97)"/>
<path d="M0 0 C2.97 1.65 5.94 3.3 9 5 C7.68 5.33 6.36 5.66 5 6 C2.25 4.1875 2.25 4.1875 0 2 C0 1.34 0 0.68 0 0 Z " fill="#202120" transform="translate(348,508)"/>
<path d="M0 0 C2.31 1.98 4.62 3.96 7 6 C5 7 5 7 2.9375 6.375 C1 5 1 5 0.25 2.375 C0.1675 1.59125 0.085 0.8075 0 0 Z " fill="#C7C327" transform="translate(262,378)"/>
<path d="M0 0 C0.66 0.66 1.32 1.32 2 2 C0.25 3.5625 0.25 3.5625 -2 5 C-4.25 4.6875 -4.25 4.6875 -6 4 C-4.02 2.68 -2.04 1.36 0 0 Z " fill="#30382D" transform="translate(216,117)"/>
</svg>
